<?xml version="1.0" standalone="no"?>
<!DOCTYPE svg PUBLIC "-//W3C//DTD SVG 20010904//EN"
 "http://www.w3.org/TR/2001/REC-SVG-20010904/DTD/svg10.dtd">
<svg version="1.0" xmlns="http://www.w3.org/2000/svg"
 width="2480.000000pt" height="2500.000000pt" viewBox="0 0 2480.000000 2500.000000"
 preserveAspectRatio="xMidYMid meet">

<g transform="translate(0.000000,2500.000000) scale(0.100000,-0.100000)"
fill="#000000" stroke="none">
<path d="M5920 12775 l0 -6525 6490 0 6490 0 0 6525 0 6525 -6490 0 -6490 0 0
-6525z m12900 0 l0 -6445 -6410 0 -6410 0 0 6445 0 6445 6410 0 6410 0 0
-6445z"/>
<path d="M8735 17756 c-161 -53 -190 -66 -189 -82 1 -10 365 -1002 809 -2204
444 -1202 815 -2203 822 -2225 8 -22 61 -166 118 -320 57 -154 557 -1506 1110
-3005 553 -1499 1010 -2729 1014 -2733 5 -5 26 40 48 100 22 59 806 2203 1743
4763 936 2560 1708 4669 1715 4685 58 138 345 949 339 955 -13 11 -388 130
-411 130 -16 0 -44 -70 -172 -422 -85 -233 -159 -436 -166 -453 -14 -34 -72
-192 -85 -233 -5 -15 -366 -1001 -802 -2192 -619 -1687 -798 -2166 -812 -2168
-9 -2 -25 3 -34 11 -44 40 -302 180 -432 234 -182 76 -341 123 -540 159 -142
26 -174 28 -395 27 -181 0 -262 -4 -330 -17 -49 -9 -117 -21 -150 -27 -33 -5
-96 -20 -140 -34 -44 -13 -109 -33 -145 -44 -151 -45 -481 -210 -596 -298 -19
-14 -39 -23 -46 -20 -7 3 -28 47 -47 98 -18 52 -62 171 -96 264 -93 248 -1732
4686 -1766 4780 -131 356 -121 335 -149 334 -14 -1 -110 -29 -215 -63z m4033
-5491 c228 -43 419 -113 613 -225 137 -79 258 -171 259 -195 0 -19 -1196
-3302 -1209 -3317 -3 -4 -11 -4 -17 0 -12 8 -1224 3289 -1224 3314 0 22 127
118 255 193 237 139 523 231 790 255 149 14 389 2 533 -25z"/>
</g>
</svg>
